M48
;DRILL file {KiCad 4.0.0-stable} date Monday, June 11, 2018 'PMt' 01:00:37 PM
;FORMAT={-:-/ absolute / inch / decimal}
FMAT,2
INCH,TZ
T1C0.012
T2C0.014
T3C0.016
T4C0.020
T5C0.024
T6C0.032
T7C0.039
%
G90
G05
M72
T1
X-1.7624Y0.4504
X-1.7624Y0.4504
X-1.7624Y-0.091
X-1.7624Y-0.091
X-1.6Y0.4504
X-1.6Y0.4504
X-1.6Y-0.091
X-1.6Y-0.091
X-1.5458Y0.5586
X-1.5458Y0.5586
X-1.5458Y0.3421
X-1.5458Y0.3421
X-1.5458Y0.0173
X-1.5458Y0.0173
X-1.5458Y-0.1993
X-1.5458Y-0.1993
X-1.4917Y0.4504
X-1.4917Y0.4504
X-1.4917Y-0.091
X-1.4917Y-0.091
X-1.3834Y0.5586
X-1.3834Y0.5586
X-1.3834Y0.4504
X-1.3834Y0.4504
X-1.3834Y0.3421
X-1.3834Y0.3421
X-1.3834Y0.2338
X-1.3834Y0.2338
X-1.3834Y0.1256
X-1.3834Y0.1256
X-1.3834Y0.0173
X-1.3834Y0.0173
X-1.3834Y-0.091
X-1.3834Y-0.091
X-1.3834Y-0.1993
X-1.3834Y-0.1993
X-1.2752Y0.5586
X-1.2752Y0.5586
X-1.2752Y0.4504
X-1.2752Y0.4504
X-1.2752Y0.3421
X-1.2752Y0.3421
X-1.2752Y0.2338
X-1.2752Y0.2338
X-1.2752Y0.1256
X-1.2752Y0.1256
X-1.2752Y0.0173
X-1.2752Y0.0173
X-1.2752Y-0.091
X-1.2752Y-0.091
X-1.2752Y-0.1993
X-1.2752Y-0.1993
X-1.1669Y0.5586
X-1.1669Y0.5586
X-1.1669Y0.4504
X-1.1669Y0.4504
X-1.1669Y0.3421
X-1.1669Y0.3421
X-1.1669Y0.2338
X-1.1669Y0.2338
X-1.1669Y0.1256
X-1.1669Y0.1256
X-1.1669Y0.0173
X-1.1669Y0.0173
X-1.1669Y-0.091
X-1.1669Y-0.091
X-1.1669Y-0.1993
X-1.1669Y-0.1993
X-1.0586Y0.5586
X-1.0586Y0.5586
X-1.0586Y0.4504
X-1.0586Y0.4504
X-1.0586Y0.3421
X-1.0586Y0.3421
X-1.0586Y0.2338
X-1.0586Y0.2338
X-1.0586Y0.1256
X-1.0586Y0.1256
X-1.0586Y0.0173
X-1.0586Y0.0173
X-1.0586Y-0.091
X-1.0586Y-0.091
X-1.0586Y-0.1993
X-1.0586Y-0.1993
X-0.9504Y0.5586
X-0.9504Y0.5586
X-0.9504Y0.4504
X-0.9504Y0.4504
X-0.9504Y0.3421
X-0.9504Y0.3421
X-0.9504Y0.2338
X-0.9504Y0.2338
X-0.9504Y0.1256
X-0.9504Y0.1256
X-0.9504Y0.0173
X-0.9504Y0.0173
X-0.9504Y-0.091
X-0.9504Y-0.091
X-0.9504Y-0.1993
X-0.9504Y-0.1993
X-0.8421Y0.5586
X-0.8421Y0.5586
X-0.8421Y0.4504
X-0.8421Y0.4504
X-0.8421Y0.3421
X-0.8421Y0.3421
X-0.8421Y0.2338
X-0.8421Y0.2338
X-0.8421Y0.1256
X-0.8421Y0.1256
X-0.8421Y0.0173
X-0.8421Y0.0173
X-0.8421Y-0.091
X-0.8421Y-0.091
X-0.8421Y-0.1993
X-0.8421Y-0.1993
X-0.7338Y0.5586
X-0.7338Y0.5586
X-0.7338Y0.4504
X-0.7338Y0.4504
X-0.7338Y0.3421
X-0.7338Y0.3421
X-0.7338Y0.2338
X-0.7338Y0.2338
X-0.7338Y0.1256
X-0.7338Y0.1256
X-0.7338Y0.0173
X-0.7338Y0.0173
X-0.7338Y-0.091
X-0.7338Y-0.091
X-0.7338Y-0.1993
X-0.7338Y-0.1993
X-0.6256Y0.5586
X-0.6256Y0.5586
X-0.6256Y0.4504
X-0.6256Y0.4504
X-0.6256Y0.3421
X-0.6256Y0.3421
X-0.6256Y0.2338
X-0.6256Y0.2338
X-0.6256Y0.1256
X-0.6256Y0.1256
X-0.6256Y0.0173
X-0.6256Y0.0173
X-0.6256Y-0.091
X-0.6256Y-0.091
X-0.6256Y-0.1993
X-0.6256Y-0.1993
X-0.5173Y0.5586
X-0.5173Y0.5586
X-0.5173Y0.4504
X-0.5173Y0.4504
X-0.5173Y0.3421
X-0.5173Y0.3421
X-0.5173Y0.2338
X-0.5173Y0.2338
X-0.5173Y0.1256
X-0.5173Y0.1256
X-0.5173Y0.0173
X-0.5173Y0.0173
X-0.5173Y-0.091
X-0.5173Y-0.091
X-0.5173Y-0.1993
X-0.5173Y-0.1993
X-0.409Y0.5586
X-0.409Y0.5586
X-0.409Y0.4504
X-0.409Y0.4504
X-0.409Y0.3421
X-0.409Y0.3421
X-0.409Y0.2338
X-0.409Y0.2338
X-0.409Y0.1256
X-0.409Y0.1256
X-0.409Y0.0173
X-0.409Y0.0173
X-0.409Y-0.091
X-0.409Y-0.091
X-0.409Y-0.1993
X-0.409Y-0.1993
X-0.3007Y0.5586
X-0.3007Y0.5586
X-0.3007Y0.4504
X-0.3007Y0.4504
X-0.3007Y0.3421
X-0.3007Y0.3421
X-0.3007Y0.2338
X-0.3007Y0.2338
X-0.3007Y0.1256
X-0.3007Y0.1256
X-0.3007Y0.0173
X-0.3007Y0.0173
X-0.3007Y-0.091
X-0.3007Y-0.091
X-0.3007Y-0.1993
X-0.3007Y-0.1993
X-0.1925Y0.5586
X-0.1925Y0.5586
X-0.1925Y0.4504
X-0.1925Y0.4504
X-0.1925Y0.3421
X-0.1925Y0.3421
X-0.1925Y0.2338
X-0.1925Y0.2338
X-0.1925Y0.1256
X-0.1925Y0.1256
X-0.1925Y0.0173
X-0.1925Y0.0173
X-0.1925Y-0.091
X-0.1925Y-0.091
X-0.1925Y-0.1993
X-0.1925Y-0.1993
X-0.0842Y0.5586
X-0.0842Y0.5586
X-0.0842Y0.4504
X-0.0842Y0.4504
X-0.0842Y0.3421
X-0.0842Y0.3421
X-0.0842Y0.2338
X-0.0842Y0.2338
X-0.0842Y0.1256
X-0.0842Y0.1256
X-0.0842Y0.0173
X-0.0842Y0.0173
X-0.0842Y-0.091
X-0.0842Y-0.091
X-0.0842Y-0.1993
X-0.0842Y-0.1993
X0.0241Y0.5586
X0.0241Y0.5586
X0.0241Y0.4504
X0.0241Y0.4504
X0.0241Y0.3421
X0.0241Y0.3421
X0.0241Y0.2338
X0.0241Y0.2338
X0.0241Y0.1256
X0.0241Y0.1256
X0.0241Y0.0173
X0.0241Y0.0173
X0.0241Y-0.091
X0.0241Y-0.091
X0.0241Y-0.1993
X0.0241Y-0.1993
X0.1323Y0.4504
X0.1323Y0.4504
X0.1323Y-0.091
X0.1323Y-0.091
X0.1865Y0.5586
X0.1865Y0.5586
X0.1865Y0.3421
X0.1865Y0.3421
X0.1865Y0.0173
X0.1865Y0.0173
X0.1865Y-0.1993
X0.1865Y-0.1993
X0.2406Y0.4504
X0.2406Y0.4504
X0.2406Y-0.091
X0.2406Y-0.091
X0.403Y0.4504
X0.403Y0.4504
X0.403Y-0.091
X0.403Y-0.091
T2
X-1.2204Y-1.1604
X-1.2204Y-1.1998
X-1.2204Y-1.2392
X-1.2007Y-1.1801
X-1.2007Y-1.2195
X-1.1811Y-1.1604
X-1.1811Y-1.1998
X-1.1811Y-1.2392
X-1.1614Y-1.1801
X-1.1614Y-1.2195
X-1.1417Y-1.1604
X-1.1417Y-1.1998
X-1.1417Y-1.2392
X-1.122Y-1.1801
X-1.122Y-1.2195
X-1.1023Y-1.1604
X-1.1023Y-1.1998
X-1.1023Y-1.2392
X-1.0826Y-1.1801
X-1.0826Y-1.2195
X-1.063Y-1.1604
X-1.063Y-1.1998
X-1.063Y-1.2392
T3
X-2.3817Y2.6686
X-2.3817Y2.4586
X-2.1717Y1.5286
X-2.0617Y1.9386
X-2.0317Y2.4086
X-2.0317Y1.5286
X-1.9817Y1.4686
X-1.9417Y2.0486
X-1.8617Y1.7586
X-1.6917Y1.6086
X-1.5917Y1.6236
X-1.5717Y1.8386
X-1.5698Y-1.3437
X-1.4617Y1.7986
X-1.2717Y1.7386
X-1.2417Y1.7386
X-1.0217Y1.6686
X-0.9417Y1.9086
X-0.9217Y1.4586
X-0.8936Y1.5352
X-0.8867Y2.6336
X-0.8817Y1.4586
X-0.8603Y1.5388
X-0.8348Y-1.3137
X-0.8348Y-1.4237
X-0.8298Y-1.1637
X-0.8117Y2.0636
X-0.7717Y2.0786
X-0.7517Y1.4586
X-0.7417Y2.6336
X-0.7317Y1.9786
X-0.7161Y1.598
X-0.6317Y-1.1814
X-0.6217Y2.0486
X-0.5917Y-1.4714
X-0.5867Y2.0786
X-0.5667Y2.2086
X-0.5617Y1.4786
X-0.5498Y-1.3637
X-0.5367Y2.4736
X-0.5317Y1.6311
X-0.5298Y-1.3087
X-0.5267Y2.1136
X-0.5117Y1.5095
X-0.4817Y1.8886
X-0.4817Y1.8386
X-0.4767Y2.5186
X-0.4567Y2.3036
X-0.4517Y1.4386
X-0.4467Y1.9136
X-0.4317Y2.3286
X-0.4317Y2.1336
X-0.4217Y2.2886
X-0.4217Y2.0186
X-0.4017Y2.1736
X-0.3817Y2.2786
X-0.3767Y1.9136
X-0.3717Y2.3736
X-0.3517Y2.2586
X-0.3463Y1.8421
X-0.3217Y2.2286
X-0.3117Y1.4686
X-0.2867Y2.1536
X-0.2817Y2.484
X-0.2817Y1.8175
X-0.2817Y1.6311
X-0.2617Y2.1286
X-0.2617Y1.8686
X-0.2617Y1.4886
X-0.2417Y2.4836
X-0.2267Y2.1236
X-0.2117Y1.4386
X-0.2067Y2.4586
X-0.2017Y2.4286
X-0.1967Y2.5486
X-0.1667Y2.5686
X-0.1334Y1.8381
X-0.1317Y2.1086
X-0.1117Y2.4586
X-0.1017Y1.435
X-0.0967Y2.0836
X-0.0717Y2.4586
X-0.0617Y1.4904
X-0.0517Y1.7986
X-0.0317Y1.6311
X-0.0117Y1.7986
X-0.0067Y2.0936
X0.0333Y2.0836
X0.0333Y1.8236
X0.0433Y2.2286
X0.0533Y2.3736
X0.0683Y2.2586
X0.0683Y2.0936
X0.0883Y1.5386
X0.125Y1.514
X0.1483Y1.4904
X0.1533Y1.8486
X0.1697Y1.5547
X0.1733Y2.3736
X0.1742Y1.4668
X0.1783Y2.4286
X0.1983Y1.4436
X0.2083Y1.7236
X0.2233Y2.0036
X0.2983Y1.7186
X0.4283Y1.6686
X0.4652Y-1.2237
X0.4683Y1.7286
X0.4783Y1.5986
X0.4932Y1.7519
X0.5183Y2.1986
X0.5233Y2.1586
X0.5383Y1.7686
X0.5433Y2.3336
X0.5583Y2.5936
X0.5633Y2.1736
X0.5683Y2.3586
X0.59Y2.4453
X0.6283Y2.3236
X0.6283Y1.6686
X0.6283Y1.5586
X0.6583Y2.2986
X0.6783Y1.7086
X0.7183Y1.4886
X0.7433Y2.2986
X0.7483Y1.5386
X0.7729Y1.464
X0.7933Y1.7436
X0.8083Y1.5086
X0.8283Y2.3336
X0.8983Y1.8886
X0.9833Y1.5636
X1.0633Y2.4586
X1.0633Y2.3986
T5
X-2.5467Y1.4986
X-2.4417Y2.4586
X-2.4367Y2.6686
X-2.3717Y2.5736
X-2.3717Y2.5436
X-2.3017Y1.6986
X-2.1217Y1.4686
X-2.0317Y2.3386
X-1.8917Y2.0986
X-1.3817Y1.6363
X-1.3217Y2.2586
X-1.1267Y2.4186
X-1.1137Y1.7633
X-1.1017Y1.4386
X-1.0467Y1.9636
X-1.0367Y2.3786
X-1.0367Y2.3336
X-0.9817Y2.3186
X-0.8117Y1.6686
X-0.7476Y1.7437
X-0.7417Y1.7909
X-0.7017Y2.6986
X-0.6649Y1.4602
X-0.5717Y2.3136
X-0.4867Y2.6086
X-0.4567Y2.6436
X-0.2817Y1.9786
X-0.2817Y1.9336
X-0.1017Y1.9536
X-0.0267Y2.4686
X0.0633Y2.4786
X0.0783Y1.6486
X0.1183Y2.7386
X0.2383Y2.7386
X0.2483Y2.4636
X0.3283Y2.5536
X0.3583Y2.4736
X0.4483Y2.4686
X0.4583Y2.5936
X0.4883Y1.5586
X0.5933Y2.1386
X0.6933Y2.5686
X0.7033Y2.4486
X0.7833Y-1.1014
X0.7933Y1.5686
X0.8383Y1.5686
X0.8483Y2.5886
X0.8733Y1.6286
X0.9333Y2.4936
X1.0083Y2.4936
T6
X-2.2848Y2.2259
X-2.2848Y2.1259
X-2.2848Y2.0259
T7
X1.1693Y1.6167
T4
X0.4034Y2.8072G85X0.4034Y2.7836
G05
X0.4176Y2.573G85X0.4176Y2.5494
G05
X0.7428Y2.573G85X0.7428Y2.5494
G05
X0.7569Y2.8072G85X0.7569Y2.7836
G05
T0
M30
